<svg width="128" height="30" viewBox="0 0 128 30" fill="none" xmlns="http://www.w3.org/2000/svg">
<path d="M84.0681 9.76172C84.335 9.76172 84.5238 9.81055 84.6345 9.9082C84.7451 10.0059 84.8005 10.1686 84.8005 10.3965V13.2285C84.8005 13.4564 84.7451 13.6191 84.6345 13.7168C84.5238 13.8145 84.335 13.8633 84.0681 13.8633C83.8011 13.8633 83.6123 13.8145 83.5016 13.7168C83.391 13.6191 83.3356 13.4564 83.3356 13.2285C83.3356 12.8314 83.2315 12.4798 83.0231 12.1738C82.8148 11.8678 82.5023 11.6302 82.0856 11.4609C81.6755 11.2917 81.1807 11.207 80.6013 11.207C79.9763 11.207 79.4164 11.347 78.9216 11.627C78.4268 11.9069 78.0394 12.2975 77.7595 12.7988C77.4795 13.3001 77.3395 13.8633 77.3395 14.4883C77.3395 15.1198 77.4697 15.6862 77.7302 16.1875C77.9971 16.6823 78.3682 17.0697 78.8434 17.3496C79.3252 17.6296 79.8786 17.7695 80.5036 17.7695C81.1026 17.7695 81.682 17.6784 82.2419 17.4961C82.8083 17.3073 83.3226 17.0371 83.7849 16.6855C83.9216 16.5814 84.0485 16.5293 84.1657 16.5293C84.3545 16.5293 84.5303 16.6628 84.6931 16.9297C84.7907 17.0924 84.8395 17.2487 84.8395 17.3984C84.8395 17.6263 84.7354 17.8151 84.527 17.9648C84.0062 18.3555 83.391 18.6615 82.6813 18.8828C81.9717 19.1042 81.2458 19.2148 80.5036 19.2148C79.5726 19.2148 78.749 19.0098 78.0329 18.5996C77.3233 18.1895 76.7731 17.6263 76.3825 16.9102C75.9919 16.194 75.7966 15.3867 75.7966 14.4883C75.7966 13.5898 75.9951 12.7826 76.3923 12.0664C76.7894 11.3503 77.3428 10.7871 78.0524 10.377C78.7686 9.9668 79.5856 9.76172 80.5036 9.76172C81.083 9.76172 81.6136 9.86914 82.0954 10.084C82.5837 10.2923 82.9971 10.5918 83.3356 10.9824V10.3965C83.3356 10.1686 83.391 10.0059 83.5016 9.9082C83.6123 9.81055 83.8011 9.76172 84.0681 9.76172ZM93.7329 9.76172C94.2407 9.76172 94.716 9.89193 95.1587 10.1523C95.4191 10.3086 95.5493 10.5104 95.5493 10.7578C95.5493 10.875 95.52 11.0117 95.4614 11.168C95.3247 11.5391 95.1359 11.7246 94.895 11.7246C94.7974 11.7246 94.7062 11.6986 94.6216 11.6465C94.3026 11.4707 93.9608 11.3828 93.5962 11.3828C93.0102 11.3828 92.421 11.5879 91.8286 11.998C91.2362 12.4017 90.7479 12.9421 90.3638 13.6191C89.9862 14.2962 89.7974 15.0156 89.7974 15.7773V17.6719H93.0884C93.3097 17.6719 93.466 17.724 93.5571 17.8281C93.6548 17.9258 93.7036 18.0951 93.7036 18.3359C93.7036 18.5768 93.6548 18.7493 93.5571 18.8535C93.466 18.9512 93.3097 19 93.0884 19H86.7993C86.5779 19 86.4184 18.9512 86.3208 18.8535C86.2296 18.7493 86.1841 18.5768 86.1841 18.3359C86.1841 18.0951 86.2296 17.9258 86.3208 17.8281C86.4184 17.724 86.5779 17.6719 86.7993 17.6719H88.3325V11.3047H87.0923C86.8709 11.3047 86.7114 11.2559 86.6138 11.1582C86.5226 11.054 86.477 10.8815 86.477 10.6406C86.477 10.3997 86.5226 10.2305 86.6138 10.1328C86.7114 10.0286 86.8709 9.97656 87.0923 9.97656H89.0845C89.3058 9.97656 89.4621 10.0286 89.5532 10.1328C89.6509 10.2305 89.6997 10.3997 89.6997 10.6406V12.6133C90.0122 12.0404 90.3898 11.5391 90.8325 11.1094C91.2752 10.6797 91.7472 10.3477 92.2485 10.1133C92.7498 9.87891 93.2446 9.76172 93.7329 9.76172ZM101.025 9.76172C101.969 9.76172 102.773 9.95378 103.437 10.3379C104.107 10.7155 104.622 11.2428 104.98 11.9199C105.338 12.5905 105.543 13.3652 105.595 14.2441C105.595 14.4655 105.546 14.6217 105.449 14.7129C105.357 14.804 105.201 14.8496 104.98 14.8496H97.9095C97.955 15.8197 98.2415 16.5553 98.7688 17.0566C99.3027 17.5514 100.055 17.7988 101.025 17.7988C101.624 17.7988 102.216 17.724 102.802 17.5742C103.388 17.418 103.902 17.2129 104.345 16.959C104.456 16.9004 104.557 16.8711 104.648 16.8711C104.876 16.8711 105.061 17.0436 105.204 17.3887C105.263 17.5254 105.292 17.6491 105.292 17.7598C105.292 18.0202 105.149 18.222 104.863 18.3652C104.361 18.6191 103.769 18.8242 103.085 18.9805C102.402 19.1367 101.715 19.2148 101.025 19.2148C100.042 19.2148 99.2018 19.026 98.5052 18.6484C97.8085 18.2708 97.2779 17.7272 96.9134 17.0176C96.5488 16.3079 96.3665 15.4648 96.3665 14.4883C96.3665 13.5573 96.5651 12.7337 96.9622 12.0176C97.3593 11.3014 97.9095 10.748 98.6126 10.3574C99.3157 9.96029 100.12 9.76172 101.025 9.76172ZM101.025 11.1777C100.224 11.1777 99.5599 11.3828 99.0325 11.793C98.5117 12.1966 98.1699 12.7598 98.0071 13.4824H103.974C103.837 12.7337 103.521 12.1641 103.027 11.7734C102.538 11.3763 101.871 11.1777 101.025 11.1777ZM116.608 9.97656C116.829 9.97656 116.985 10.0286 117.076 10.1328C117.174 10.2305 117.223 10.3997 117.223 10.6406C117.223 10.8815 117.174 11.054 117.076 11.1582C116.985 11.2559 116.829 11.3047 116.608 11.3047H116.373L114.449 18.5801C114.384 18.8145 114.287 18.9772 114.156 19.0684C114.033 19.166 113.847 19.2148 113.6 19.2148C113.32 19.2148 113.098 19.1628 112.936 19.0586C112.779 18.9609 112.662 18.8014 112.584 18.5801L111.09 14.3418L109.576 18.5801C109.498 18.8014 109.374 18.9609 109.205 19.0586C109.042 19.1628 108.821 19.2148 108.541 19.2148C108.294 19.2148 108.108 19.166 107.984 19.0684C107.861 18.9772 107.77 18.8145 107.711 18.5801L105.826 11.3047H105.65C105.429 11.3047 105.27 11.2559 105.172 11.1582C105.081 11.054 105.035 10.8815 105.035 10.6406C105.035 10.3997 105.081 10.2305 105.172 10.1328C105.27 10.0286 105.429 9.97656 105.65 9.97656H108.522C108.743 9.97656 108.899 10.0286 108.99 10.1328C109.088 10.2305 109.137 10.3997 109.137 10.6406C109.137 10.8815 109.088 11.054 108.99 11.1582C108.899 11.2559 108.743 11.3047 108.522 11.3047H107.32L108.727 16.9883L110.358 12.457C110.403 12.3203 110.488 12.2096 110.611 12.125C110.735 12.0404 110.898 11.998 111.1 11.998C111.51 11.998 111.761 12.1283 111.852 12.3887L113.473 16.9883L114.918 11.3047H113.932C113.71 11.3047 113.551 11.2559 113.453 11.1582C113.362 11.054 113.316 10.8815 113.316 10.6406C113.316 10.3997 113.362 10.2305 113.453 10.1328C113.551 10.0286 113.71 9.97656 113.932 9.97656H116.608Z" fill="#1DBF73"/>
<path d="M40.7163 11.12H39.4363L39.8763 9.08H41.1563L41.2963 8.44C41.4697 7.57333 41.763 6.82667 42.1763 6.2C42.5897 5.56 43.083 5.06667 43.6563 4.72C44.243 4.37333 44.8763 4.2 45.5563 4.2C45.9697 4.2 46.3763 4.25333 46.7763 4.36C47.1763 4.46667 47.5563 4.62 47.9163 4.82L46.9763 6.84C46.803 6.73333 46.5963 6.64667 46.3563 6.58C46.1163 6.5 45.8897 6.46 45.6763 6.46C45.263 6.46 44.9097 6.62 44.6163 6.94C44.3363 7.26 44.1297 7.72667 43.9963 8.34L43.8363 9.08H46.2363L45.7963 11.12H43.3963L40.8163 23.24H38.1363L40.7163 11.12ZM49.7248 19.2C48.9514 19.2 48.2848 19.0133 47.7248 18.64C47.1781 18.2533 46.7514 17.74 46.4448 17.1C46.1514 16.4467 46.0048 15.7133 46.0048 14.9C46.0048 14.0333 46.1581 13.2067 46.4648 12.42C46.7714 11.6333 47.1914 10.9333 47.7248 10.32C48.2714 9.70667 48.8848 9.22667 49.5648 8.88C50.2581 8.52 50.9848 8.34 51.7448 8.34C52.4648 8.34 53.0781 8.53333 53.5848 8.92C54.0914 9.29333 54.4381 9.77333 54.6248 10.36L55.0248 8.56H57.7048L56.1448 15.92C56.1314 15.9867 56.1181 16.0533 56.1048 16.12C56.0914 16.1733 56.0848 16.2267 56.0848 16.28C56.0848 16.56 56.2448 16.7067 56.5648 16.72L56.0848 19C55.8448 19.04 55.6314 19.0733 55.4448 19.1C55.2714 19.1267 55.1181 19.14 54.9848 19.14C54.5048 19.14 54.1314 19.04 53.8648 18.84C53.5981 18.64 53.4648 18.34 53.4648 17.94C53.4648 17.8867 53.4714 17.8267 53.4848 17.76C53.4981 17.68 53.5114 17.5933 53.5248 17.5C53.5381 17.3933 53.5581 17.2867 53.5848 17.18C53.0781 17.8333 52.4781 18.3333 51.7848 18.68C51.0914 19.0267 50.4048 19.2 49.7248 19.2ZM50.9248 16.92C51.1514 16.92 51.3914 16.88 51.6448 16.8C51.8981 16.7067 52.1448 16.5867 52.3848 16.44C52.6381 16.28 52.8714 16.0933 53.0848 15.88C53.2981 15.6533 53.4781 15.4133 53.6248 15.16L54.1448 12.66C54.1048 12.2733 53.9848 11.9267 53.7848 11.62C53.5848 11.3133 53.3381 11.0733 53.0448 10.9C52.7514 10.7133 52.4381 10.62 52.1048 10.62C51.6781 10.62 51.2648 10.7333 50.8648 10.96C50.4781 11.1733 50.1314 11.4667 49.8248 11.84C49.5181 12.2 49.2714 12.6133 49.0848 13.08C48.9114 13.5333 48.8248 14 48.8248 14.48C48.8248 14.9333 48.9114 15.3467 49.0848 15.72C49.2581 16.0933 49.4981 16.3867 49.8048 16.6C50.1248 16.8133 50.4981 16.92 50.9248 16.92ZM61.9052 19.2C61.0519 19.2 60.2452 19.06 59.4852 18.78C58.7386 18.5 58.1386 18.1 57.6852 17.58L59.0252 15.9C59.5319 16.34 60.0519 16.68 60.5852 16.92C61.1186 17.1467 61.6586 17.26 62.2052 17.26C62.5786 17.26 62.8986 17.2067 63.1652 17.1C63.4319 16.98 63.6386 16.8267 63.7852 16.64C63.9319 16.44 64.0052 16.2133 64.0052 15.96C64.0052 15.6267 63.8586 15.38 63.5652 15.22C63.2719 15.06 62.8119 14.8867 62.1852 14.7C61.4919 14.4733 60.9186 14.26 60.4652 14.06C60.0252 13.8467 59.6986 13.6 59.4852 13.32C59.2719 13.0267 59.1652 12.66 59.1652 12.22C59.1652 11.4733 59.3719 10.8067 59.7852 10.22C60.2119 9.63333 60.7786 9.17333 61.4852 8.84C62.2052 8.49333 63.0052 8.32 63.8852 8.32C64.6452 8.32 65.3252 8.44 65.9252 8.68C66.5252 8.90667 67.0586 9.26667 67.5252 9.76L66.1052 11.38C65.6786 10.98 65.2652 10.6933 64.8652 10.52C64.4786 10.3333 64.0519 10.24 63.5852 10.24C63.2386 10.24 62.9252 10.2933 62.6452 10.4C62.3786 10.4933 62.1652 10.64 62.0052 10.84C61.8452 11.04 61.7652 11.28 61.7652 11.56C61.7652 11.8667 61.8852 12.0933 62.1252 12.24C62.3786 12.3733 62.8119 12.5333 63.4252 12.72C64.1719 12.9333 64.7852 13.16 65.2652 13.4C65.7452 13.6267 66.1052 13.9 66.3452 14.22C66.5852 14.54 66.7052 14.9467 66.7052 15.44C66.7052 16.1733 66.5052 16.82 66.1052 17.38C65.7052 17.94 65.1452 18.3867 64.4252 18.72C63.7052 19.04 62.8652 19.2 61.9052 19.2ZM68.6565 17.34C68.6565 17.22 68.6632 17.1 68.6765 16.98C68.6898 16.86 68.7098 16.7333 68.7365 16.6L70.0165 10.58H68.7165L69.1565 8.52H70.4365L71.1565 5.12H73.8365L73.1165 8.52H75.2165L74.7765 10.58H72.6965L71.5965 15.7C71.5832 15.7533 71.5698 15.8067 71.5565 15.86C71.5565 15.9133 71.5565 15.9667 71.5565 16.02C71.5565 16.2733 71.6298 16.4533 71.7765 16.56C71.9232 16.6667 72.1032 16.72 72.3165 16.72C72.4898 16.72 72.6632 16.7 72.8365 16.66C73.0232 16.62 73.1965 16.5667 73.3565 16.5C73.5165 16.4333 73.6565 16.38 73.7765 16.34L73.8565 18.46C73.5898 18.58 73.2898 18.7 72.9565 18.82C72.6232 18.9267 72.2765 19.0133 71.9165 19.08C71.5565 19.1467 71.1965 19.18 70.8365 19.18C70.2098 19.18 69.6898 19.04 69.2765 18.76C68.8632 18.4667 68.6565 17.9933 68.6565 17.34Z" fill="#404145"/>
<path d="M34.6156 13.4115C34.9473 13.4202 35.2631 13.2957 35.4934 13.057C35.7237 12.8187 35.8496 12.4858 35.8436 12.1399C35.8375 11.7939 35.7001 11.4657 35.4616 11.2356C35.2231 11.0051 34.9032 10.8916 34.5719 10.9119C34.1959 10.9321 33.9015 10.974 33.5932 11.0101C32.7321 11.1167 31.8924 11.2295 31.0389 11.3432C26.488 11.9554 21.9384 12.5817 17.391 13.2043C17.0911 13.2453 16.7917 13.2864 16.4917 13.3275C16.3736 13.3437 16.2649 13.4081 16.1892 13.5034C16.1136 13.5988 16.0772 13.7174 16.0882 13.836C16.0993 13.9546 16.1571 14.0643 16.2491 14.1441C16.3411 14.2237 16.4598 14.2668 16.5789 14.2609C16.5789 14.2609 16.5789 14.2609 16.5789 14.2609C16.8813 14.2458 17.1831 14.2306 17.4854 14.2155C22.0687 13.9865 26.6585 13.7534 31.2369 13.5355C32.0931 13.4954 32.942 13.4557 33.786 13.4243C34.0809 13.4146 34.3878 13.4013 34.6156 13.4115Z" fill="#1DBF73"/>
<path d="M36.2521 19.5671C36.5827 19.5414 36.8859 19.3849 37.0943 19.127C37.3028 18.8694 37.3994 18.5313 37.3636 18.1925C37.3277 17.8537 37.1624 17.5434 36.9047 17.3351C36.6469 17.1265 36.3177 17.037 35.9889 17.081C35.9889 17.081 35.9889 17.081 35.9889 17.081C35.5432 17.1433 35.0898 17.1862 34.6184 17.2299C33.1844 17.3597 31.7387 17.4738 30.2863 17.5891C23.1838 18.1464 16.0616 18.6808 8.95109 19.2204C8.4752 19.2565 7.9999 19.2925 7.5237 19.3285C7.40303 19.3377 7.28967 19.3956 7.20847 19.4874C7.12727 19.5794 7.08489 19.6979 7.09072 19.8187C7.09656 19.9396 7.15018 20.0534 7.23986 20.1371C7.32954 20.2208 7.44795 20.2674 7.56894 20.2649C7.56894 20.2649 7.56894 20.2649 7.56894 20.2649C8.0464 20.2549 8.52296 20.2449 9.00011 20.2349C16.1304 20.0841 23.2678 19.9388 30.3989 19.7701C31.8599 19.7337 33.3059 19.6992 34.7733 19.6468C35.2516 19.6287 35.7523 19.609 36.2521 19.5671Z" fill="#1DBF73"/>
<path d="M72.8916 24.4056C73.2224 24.4278 73.547 24.3172 73.7942 24.0962C74.0413 23.8753 74.1908 23.562 74.2095 23.2274C74.2282 22.8928 74.1147 22.5648 73.8937 22.3177C73.6727 22.0705 73.3625 21.9244 73.0313 21.9095C73.0313 21.9095 73.0313 21.9095 73.0313 21.9095C71.633 21.9122 70.5479 21.9753 69.3089 22.0138C66.4408 22.1171 63.5587 22.2262 60.6833 22.3351C44.9241 22.9368 29.1333 23.5478 13.3765 24.1839C10.2639 24.3109 7.16705 24.4377 4.06762 24.5786C2.84916 24.6403 1.66771 24.6721 0.418049 24.7891C0.295777 24.8025 0.183314 24.8643 0.105325 24.9602C0.0273412 25.0562 -0.00978031 25.1784 0.00220261 25.3008C0.0141855 25.4232 0.074313 25.536 0.169433 25.615C0.264549 25.694 0.386865 25.7328 0.509399 25.7222C0.509399 25.7222 0.509399 25.7222 0.509399 25.7222C1.67102 25.6379 2.89637 25.6283 4.10322 25.5936C7.20049 25.5197 10.2992 25.4598 13.4128 25.3996C29.1769 25.1034 44.978 24.8322 60.7441 24.5704C63.6204 24.5233 66.5042 24.4762 69.3696 24.4349C70.5502 24.4213 71.8798 24.3897 72.8916 24.4056Z" fill="#1DBF73"/>
</svg>
