<svg width="128" height="30" viewBox="0 0 128 30" fill="none" xmlns="http://www.w3.org/2000/svg">
<path d="M84.0681 9.76172C84.335 9.76172 84.5238 9.81055 84.6345 9.9082C84.7451 10.0059 84.8005 10.1686 84.8005 10.3965V13.2285C84.8005 13.4564 84.7451 13.6191 84.6345 13.7168C84.5238 13.8145 84.335 13.8633 84.0681 13.8633C83.8011 13.8633 83.6123 13.8145 83.5016 13.7168C83.391 13.6191 83.3356 13.4564 83.3356 13.2285C83.3356 12.8314 83.2315 12.4798 83.0231 12.1738C82.8148 11.8678 82.5023 11.6302 82.0856 11.4609C81.6755 11.2917 81.1807 11.207 80.6013 11.207C79.9763 11.207 79.4164 11.347 78.9216 11.627C78.4268 11.9069 78.0394 12.2975 77.7595 12.7988C77.4795 13.3001 77.3395 13.8633 77.3395 14.4883C77.3395 15.1198 77.4697 15.6862 77.7302 16.1875C77.9971 16.6823 78.3682 17.0697 78.8434 17.3496C79.3252 17.6296 79.8786 17.7695 80.5036 17.7695C81.1026 17.7695 81.682 17.6784 82.2419 17.4961C82.8083 17.3073 83.3226 17.0371 83.7849 16.6855C83.9216 16.5814 84.0485 16.5293 84.1657 16.5293C84.3545 16.5293 84.5303 16.6628 84.6931 16.9297C84.7907 17.0924 84.8395 17.2487 84.8395 17.3984C84.8395 17.6263 84.7354 17.8151 84.527 17.9648C84.0062 18.3555 83.391 18.6615 82.6813 18.8828C81.9717 19.1042 81.2458 19.2148 80.5036 19.2148C79.5726 19.2148 78.749 19.0098 78.0329 18.5996C77.3233 18.1895 76.7731 17.6263 76.3825 16.9102C75.9919 16.194 75.7966 15.3867 75.7966 14.4883C75.7966 13.5898 75.9951 12.7826 76.3923 12.0664C76.7894 11.3503 77.3428 10.7871 78.0524 10.377C78.7686 9.9668 79.5856 9.76172 80.5036 9.76172C81.083 9.76172 81.6136 9.86914 82.0954 10.084C82.5837 10.2923 82.9971 10.5918 83.3356 10.9824V10.3965C83.3356 10.1686 83.391 10.0059 83.5016 9.9082C83.6123 9.81055 83.8011 9.76172 84.0681 9.76172ZM93.7329 9.76172C94.2407 9.76172 94.716 9.89193 95.1587 10.1523C95.4191 10.3086 95.5493 10.5104 95.5493 10.7578C95.5493 10.875 95.52 11.0117 95.4614 11.168C95.3247 11.5391 95.1359 11.7246 94.895 11.7246C94.7974 11.7246 94.7062 11.6986 94.6216 11.6465C94.3026 11.4707 93.9608 11.3828 93.5962 11.3828C93.0102 11.3828 92.421 11.5879 91.8286 11.998C91.2362 12.4017 90.7479 12.9421 90.3638 13.6191C89.9862 14.2962 89.7974 15.0156 89.7974 15.7773V17.6719H93.0884C93.3097 17.6719 93.466 17.724 93.5571 17.8281C93.6548 17.9258 93.7036 18.0951 93.7036 18.3359C93.7036 18.5768 93.6548 18.7493 93.5571 18.8535C93.466 18.9512 93.3097 19 93.0884 19H86.7993C86.5779 19 86.4184 18.9512 86.3208 18.8535C86.2296 18.7493 86.1841 18.5768 86.1841 18.3359C86.1841 18.0951 86.2296 17.9258 86.3208 17.8281C86.4184 17.724 86.5779 17.6719 86.7993 17.6719H88.3325V11.3047H87.0923C86.8709 11.3047 86.7114 11.2559 86.6138 11.1582C86.5226 11.054 86.477 10.8815 86.477 10.6406C86.477 10.3997 86.5226 10.2305 86.6138 10.1328C86.7114 10.0286 86.8709 9.97656 87.0923 9.97656H89.0845C89.3058 9.97656 89.4621 10.0286 89.5532 10.1328C89.6509 10.2305 89.6997 10.3997 89.6997 10.6406V12.6133C90.0122 12.0404 90.3898 11.5391 90.8325 11.1094C91.2752 10.6797 91.7472 10.3477 92.2485 10.1133C92.7498 9.87891 93.2446 9.76172 93.7329 9.76172ZM101.025 9.76172C101.969 9.76172 102.773 9.95378 103.437 10.3379C104.107 10.7155 104.622 11.2428 104.98 11.9199C105.338 12.5905 105.543 13.3652 105.595 14.2441C105.595 14.4655 105.546 14.6217 105.449 14.7129C105.357 14.804 105.201 14.8496 104.98 14.8496H97.9095C97.955 15.8197 98.2415 16.5553 98.7688 17.0566C99.3027 17.5514 100.055 17.7988 101.025 17.7988C101.624 17.7988 102.216 17.724 102.802 17.5742C103.388 17.418 103.902 17.2129 104.345 16.959C104.456 16.9004 104.557 16.8711 104.648 16.8711C104.876 16.8711 105.061 17.0436 105.204 17.3887C105.263 17.5254 105.292 17.6491 105.292 17.7598C105.292 18.0202 105.149 18.222 104.863 18.3652C104.361 18.6191 103.769 18.8242 103.085 18.9805C102.402 19.1367 101.715 19.2148 101.025 19.2148C100.042 19.2148 99.2018 19.026 98.5052 18.6484C97.8085 18.2708 97.2779 17.7272 96.9134 17.0176C96.5488 16.3079 96.3665 15.4648 96.3665 14.4883C96.3665 13.5573 96.5651 12.7337 96.9622 12.0176C97.3593 11.3014 97.9095 10.748 98.6126 10.3574C99.3157 9.96029 100.12 9.76172 101.025 9.76172ZM101.025 11.1777C100.224 11.1777 99.5599 11.3828 99.0325 11.793C98.5117 12.1966 98.1699 12.7598 98.0071 13.4824H103.974C103.837 12.7337 103.521 12.1641 103.027 11.7734C102.538 11.3763 101.871 11.1777 101.025 11.1777ZM116.608 9.97656C116.829 9.97656 116.985 10.0286 117.076 10.1328C117.174 10.2305 117.223 10.3997 117.223 10.6406C117.223 10.8815 117.174 11.054 117.076 11.1582C116.985 11.2559 116.829 11.3047 116.608 11.3047H116.373L114.449 18.5801C114.384 18.8145 114.287 18.9772 114.156 19.0684C114.033 19.166 113.847 19.2148 113.6 19.2148C113.32 19.2148 113.098 19.1628 112.936 19.0586C112.779 18.9609 112.662 18.8014 112.584 18.5801L111.09 14.3418L109.576 18.5801C109.498 18.8014 109.374 18.9609 109.205 19.0586C109.042 19.1628 108.821 19.2148 108.541 19.2148C108.294 19.2148 108.108 19.166 107.984 19.0684C107.861 18.9772 107.77 18.8145 107.711 18.5801L105.826 11.3047H105.65C105.429 11.3047 105.27 11.2559 105.172 11.1582C105.081 11.054 105.035 10.8815 105.035 10.6406C105.035 10.3997 105.081 10.2305 105.172 10.1328C105.27 10.0286 105.429 9.97656 105.65 9.97656H108.522C108.743 9.97656 108.899 10.0286 108.99 10.1328C109.088 10.2305 109.137 10.3997 109.137 10.6406C109.137 10.8815 109.088 11.054 108.99 11.1582C108.899 11.2559 108.743 11.3047 108.522 11.3047H107.32L108.727 16.9883L110.358 12.457C110.403 12.3203 110.488 12.2096 110.611 12.125C110.735 12.0404 110.898 11.998 111.1 11.998C111.51 11.998 111.761 12.1283 111.852 12.3887L113.473 16.9883L114.918 11.3047H113.932C113.71 11.3047 113.551 11.2559 113.453 11.1582C113.362 11.054 113.316 10.8815 113.316 10.6406C113.316 10.3997 113.362 10.2305 113.453 10.1328C113.551 10.0286 113.71 9.97656 113.932 9.97656H116.608Z" fill="#1DBF73"/>
<path d="M40.6237 11.12H39.3437L39.7837 9.08H41.0637L41.2037 8.44C41.377 7.57333 41.6704 6.82667 42.0837 6.2C42.497 5.56 42.9904 5.06667 43.5637 4.72C44.1504 4.37333 44.7837 4.2 45.4637 4.2C45.877 4.2 46.2837 4.25333 46.6837 4.36C47.0837 4.46667 47.4637 4.62 47.8237 4.82L46.8837 6.84C46.7104 6.73333 46.5037 6.64667 46.2637 6.58C46.0237 6.5 45.797 6.46 45.5837 6.46C45.1704 6.46 44.817 6.62 44.5237 6.94C44.2437 7.26 44.037 7.72667 43.9037 8.34L43.7437 9.08H46.1437L45.7037 11.12H43.3037L40.7237 23.24H38.0437L40.6237 11.12ZM49.6322 19.2C48.8588 19.2 48.1922 19.0133 47.6322 18.64C47.0855 18.2533 46.6588 17.74 46.3522 17.1C46.0588 16.4467 45.9122 15.7133 45.9122 14.9C45.9122 14.0333 46.0655 13.2067 46.3722 12.42C46.6788 11.6333 47.0988 10.9333 47.6322 10.32C48.1788 9.70667 48.7922 9.22667 49.4722 8.88C50.1655 8.52 50.8922 8.34 51.6522 8.34C52.3722 8.34 52.9855 8.53333 53.4922 8.92C53.9988 9.29333 54.3455 9.77333 54.5322 10.36L54.9322 8.56H57.6122L56.0522 15.92C56.0388 15.9867 56.0255 16.0533 56.0122 16.12C55.9988 16.1733 55.9922 16.2267 55.9922 16.28C55.9922 16.56 56.1522 16.7067 56.4722 16.72L55.9922 19C55.7522 19.04 55.5388 19.0733 55.3522 19.1C55.1788 19.1267 55.0255 19.14 54.8922 19.14C54.4122 19.14 54.0388 19.04 53.7722 18.84C53.5055 18.64 53.3722 18.34 53.3722 17.94C53.3722 17.8867 53.3788 17.8267 53.3922 17.76C53.4055 17.68 53.4188 17.5933 53.4322 17.5C53.4455 17.3933 53.4655 17.2867 53.4922 17.18C52.9855 17.8333 52.3855 18.3333 51.6922 18.68C50.9988 19.0267 50.3122 19.2 49.6322 19.2ZM50.8322 16.92C51.0588 16.92 51.2988 16.88 51.5522 16.8C51.8055 16.7067 52.0522 16.5867 52.2922 16.44C52.5455 16.28 52.7788 16.0933 52.9922 15.88C53.2055 15.6533 53.3855 15.4133 53.5322 15.16L54.0522 12.66C54.0122 12.2733 53.8922 11.9267 53.6922 11.62C53.4922 11.3133 53.2455 11.0733 52.9522 10.9C52.6588 10.7133 52.3455 10.62 52.0122 10.62C51.5855 10.62 51.1722 10.7333 50.7722 10.96C50.3855 11.1733 50.0388 11.4667 49.7322 11.84C49.4255 12.2 49.1788 12.6133 48.9922 13.08C48.8188 13.5333 48.7322 14 48.7322 14.48C48.7322 14.9333 48.8188 15.3467 48.9922 15.72C49.1655 16.0933 49.4055 16.3867 49.7122 16.6C50.0322 16.8133 50.4055 16.92 50.8322 16.92ZM61.8126 19.2C60.9593 19.2 60.1526 19.06 59.3926 18.78C58.646 18.5 58.046 18.1 57.5926 17.58L58.9326 15.9C59.4393 16.34 59.9593 16.68 60.4926 16.92C61.026 17.1467 61.566 17.26 62.1126 17.26C62.486 17.26 62.806 17.2067 63.0726 17.1C63.3393 16.98 63.546 16.8267 63.6926 16.64C63.8393 16.44 63.9126 16.2133 63.9126 15.96C63.9126 15.6267 63.766 15.38 63.4726 15.22C63.1793 15.06 62.7193 14.8867 62.0926 14.7C61.3993 14.4733 60.826 14.26 60.3726 14.06C59.9326 13.8467 59.606 13.6 59.3926 13.32C59.1793 13.0267 59.0726 12.66 59.0726 12.22C59.0726 11.4733 59.2793 10.8067 59.6926 10.22C60.1193 9.63333 60.686 9.17333 61.3926 8.84C62.1126 8.49333 62.9126 8.32 63.7926 8.32C64.5526 8.32 65.2326 8.44 65.8326 8.68C66.4326 8.90667 66.966 9.26667 67.4326 9.76L66.0126 11.38C65.586 10.98 65.1726 10.6933 64.7726 10.52C64.386 10.3333 63.9593 10.24 63.4926 10.24C63.146 10.24 62.8326 10.2933 62.5526 10.4C62.286 10.4933 62.0726 10.64 61.9126 10.84C61.7526 11.04 61.6726 11.28 61.6726 11.56C61.6726 11.8667 61.7926 12.0933 62.0326 12.24C62.286 12.3733 62.7193 12.5333 63.3326 12.72C64.0793 12.9333 64.6926 13.16 65.1726 13.4C65.6526 13.6267 66.0126 13.9 66.2526 14.22C66.4926 14.54 66.6126 14.9467 66.6126 15.44C66.6126 16.1733 66.4126 16.82 66.0126 17.38C65.6126 17.94 65.0526 18.3867 64.3326 18.72C63.6126 19.04 62.7726 19.2 61.8126 19.2ZM68.5639 17.34C68.5639 17.22 68.5705 17.1 68.5839 16.98C68.5972 16.86 68.6172 16.7333 68.6439 16.6L69.9239 10.58H68.6239L69.0639 8.52H70.3439L71.0639 5.12H73.7439L73.0239 8.52H75.1239L74.6839 10.58H72.6039L71.5039 15.7C71.4905 15.7533 71.4772 15.8067 71.4639 15.86C71.4639 15.9133 71.4639 15.9667 71.4639 16.02C71.4639 16.2733 71.5372 16.4533 71.6839 16.56C71.8305 16.6667 72.0105 16.72 72.2239 16.72C72.3972 16.72 72.5705 16.7 72.7439 16.66C72.9305 16.62 73.1039 16.5667 73.2639 16.5C73.4239 16.4333 73.5639 16.38 73.6839 16.34L73.7639 18.46C73.4972 18.58 73.1972 18.7 72.8639 18.82C72.5305 18.9267 72.1839 19.0133 71.8239 19.08C71.4639 19.1467 71.1039 19.18 70.7439 19.18C70.1172 19.18 69.5972 19.04 69.1839 18.76C68.7705 18.4667 68.5639 17.9933 68.5639 17.34Z" fill="white"/>
<path d="M34.6156 13.4115C34.9473 13.4202 35.2631 13.2957 35.4934 13.057C35.7237 12.8187 35.8496 12.4858 35.8436 12.1399C35.8375 11.7939 35.7001 11.4657 35.4616 11.2356C35.2231 11.0051 34.9032 10.8916 34.5719 10.9119C34.1959 10.9321 33.9015 10.974 33.5932 11.0101C32.7321 11.1167 31.8924 11.2296 31.0389 11.3432C26.488 11.9554 21.9384 12.5817 17.391 13.2043C17.0911 13.2454 16.7917 13.2864 16.4917 13.3275C16.3736 13.3438 16.2649 13.4081 16.1892 13.5034C16.1136 13.5988 16.0772 13.7174 16.0882 13.836C16.0993 13.9546 16.1571 14.0644 16.2491 14.1441C16.3411 14.2237 16.4598 14.2668 16.5789 14.2609C16.5789 14.2609 16.5789 14.2609 16.5789 14.2609C16.8813 14.2458 17.1831 14.2306 17.4854 14.2155C22.0687 13.9865 26.6585 13.7534 31.2369 13.5355C32.0931 13.4954 32.942 13.4557 33.786 13.4243C34.0809 13.4146 34.3878 13.4013 34.6156 13.4115Z" fill="#1DBF73"/>
<path d="M36.2521 19.5671C36.5827 19.5414 36.8859 19.3849 37.0943 19.127C37.3028 18.8693 37.3994 18.5313 37.3636 18.1925C37.3277 17.8537 37.1624 17.5434 36.9047 17.3351C36.6469 17.1265 36.3177 17.037 35.9889 17.081C35.9889 17.081 35.9889 17.081 35.9889 17.081C35.5432 17.1433 35.0898 17.1862 34.6184 17.2299C33.1844 17.3597 31.7387 17.4738 30.2863 17.5891C23.1838 18.1463 16.0616 18.6808 8.95109 19.2204C8.4752 19.2565 7.9999 19.2925 7.5237 19.3285C7.40303 19.3377 7.28967 19.3956 7.20847 19.4874C7.12727 19.5794 7.08489 19.6979 7.09072 19.8187C7.09656 19.9396 7.15018 20.0534 7.23986 20.1371C7.32954 20.2208 7.44795 20.2674 7.56894 20.2649C7.56894 20.2649 7.56894 20.2649 7.56894 20.2649C8.0464 20.2549 8.52296 20.2449 9.00011 20.2349C16.1304 20.0841 23.2678 19.9388 30.3989 19.7701C31.8599 19.7337 33.3059 19.6992 34.7733 19.6468C35.2516 19.6287 35.7523 19.609 36.2521 19.5671Z" fill="#1DBF73"/>
<path d="M72.8916 24.4056C73.2224 24.4278 73.547 24.3172 73.7942 24.0962C74.0413 23.8753 74.1908 23.562 74.2095 23.2274C74.2282 22.8928 74.1147 22.5648 73.8937 22.3177C73.6727 22.0705 73.3625 21.9244 73.0313 21.9095C73.0313 21.9095 73.0313 21.9095 73.0313 21.9095C71.633 21.9122 70.5479 21.9753 69.3089 22.0138C66.4408 22.1171 63.5587 22.2262 60.6833 22.3351C44.9241 22.9368 29.1333 23.5478 13.3765 24.1839C10.2639 24.3109 7.16705 24.4377 4.06762 24.5786C2.84916 24.6403 1.66771 24.6721 0.418049 24.7891C0.295777 24.8024 0.183314 24.8643 0.105325 24.9602C0.0273412 25.0562 -0.00978031 25.1784 0.00220261 25.3008C0.0141855 25.4232 0.074313 25.536 0.169433 25.615C0.264549 25.694 0.386865 25.7328 0.509399 25.7222C0.509399 25.7222 0.509399 25.7222 0.509399 25.7222C1.67102 25.6379 2.89637 25.6283 4.10322 25.5936C7.20049 25.5197 10.2992 25.4598 13.4128 25.3996C29.1769 25.1034 44.978 24.8322 60.7441 24.5704C63.6204 24.5233 66.5042 24.4762 69.3696 24.4349C70.5502 24.4213 71.8798 24.3897 72.8916 24.4056Z" fill="#1DBF73"/>
</svg>
